<svg width="52" height="52" viewBox="0 0 52 52" fill="none" xmlns="http://www.w3.org/2000/svg">
<path d="M51.02 26C51.5612 26 52.0019 26.439 51.9815 26.9799C51.7649 32.7275 49.6471 38.2518 45.9457 42.6783C42.0344 47.3559 36.6036 50.51 30.6025 51.5894C24.6014 52.6687 18.4119 51.6047 13.1158 48.5831C7.81977 45.5616 3.75409 40.7749 1.62947 35.0597C-0.495145 29.3444 -0.543538 23.0643 1.49275 17.317C3.52904 11.5697 7.52048 6.72086 12.7694 3.61809C18.0182 0.515314 24.1906 -0.644025 30.2076 0.342722C35.9017 1.27651 41.1138 4.07599 45.0323 8.28637C45.401 8.68257 45.3541 9.30287 44.9443 9.65642C44.5345 10.01 43.9171 9.96281 43.5471 9.56774C39.9298 5.70481 35.1309 3.1363 29.8904 2.2769C24.327 1.36454 18.6199 2.43648 13.7667 5.30535C8.91356 8.17422 5.22302 12.6575 3.34023 17.9715C1.45745 23.2856 1.50219 29.0923 3.46665 34.3767C5.4311 39.6611 9.19029 44.087 14.0871 46.8807C18.9839 49.6745 24.7069 50.6583 30.2556 49.6603C35.8042 48.6623 40.8257 45.746 44.4421 41.4211C47.8487 37.3472 49.8044 32.2676 50.02 26.9798C50.0421 26.439 50.4788 26 51.02 26Z" fill="#59D1CA"/>
</svg>
